<?xml version="1.0" standalone="no"?>
<!DOCTYPE svg PUBLIC "-//W3C//DTD SVG 20010904//EN"
 "http://www.w3.org/TR/2001/REC-SVG-20010904/DTD/svg10.dtd">
<svg version="1.0" xmlns="http://www.w3.org/2000/svg"
 width="300.000000pt" height="300.000000pt" viewBox="0 0 300.000000 300.000000"
 preserveAspectRatio="xMidYMid meet">
<metadata>
Created by potrace 1.11, written by Peter Selinger 2001-2013
</metadata>
<g transform="translate(0.000000,300.000000) scale(0.100000,-0.100000)"
fill="#000000" stroke="none">
<path d="M650 2594 c-18 -7 -56 -23 -90 -38 -34 -16 -104 -86 -125 -126 -19
-36 -30 -160 -14 -160 16 0 -2 -27 -26 -38 -44 -20 -87 -66 -111 -117 -41 -87
-20 -242 42 -315 9 -10 11 -27 6 -50 -17 -79 -1 -176 37 -232 32 -46 110 -86
183 -94 74 -8 278 -11 278 -4 0 3 26 6 58 6 31 0 85 4 120 8 l62 7 2 -28 c1
-31 2 -37 11 -73 3 -14 9 -47 12 -74 3 -27 8 -52 10 -56 7 -12 18 -135 18
-210 1 -79 -8 -136 -26 -179 -5 -14 -11 -29 -11 -33 -3 -22 -61 -68 -94 -75
-51 -10 -67 -9 -65 4 1 6 -11 26 -27 43 -26 28 -35 32 -65 27 -34 -6 -143 -75
-157 -101 -4 -7 17 -36 54 -75 62 -64 130 -109 136 -91 2 6 7 8 11 5 4 -2 17
13 29 34 19 34 27 39 70 45 79 10 149 56 193 126 12 20 37 92 45 133 1 4 2 8
3 10 6 6 13 67 14 112 1 46 -2 70 -18 175 -3 19 -7 54 -9 77 -3 23 -7 46 -10
52 -3 5 -8 31 -11 57 -3 27 -7 60 -10 74 -2 14 -6 39 -9 57 -2 18 -7 40 -10
50 -3 10 -8 38 -11 63 -4 25 -11 68 -17 95 -5 28 -12 64 -14 80 -2 17 -10 62
-16 100 -21 134 -12 191 49 289 36 59 101 106 169 122 37 9 153 10 179 2 57
-18 150 -87 161 -121 4 -12 12 -27 20 -34 12 -12 35 -103 38 -151 1 -12 10
-32 19 -43 15 -17 25 -19 60 -14 77 13 174 14 213 3 83 -25 162 -100 193 -184
23 -60 24 -171 2 -197 -6 -8 -8 -16 -5 -19 10 -10 -41 -81 -90 -126 -66 -61
-145 -93 -261 -106 -16 -2 -30 -5 -30 -6 0 -1 -9 -4 -20 -5 -11 -1 -76 -12
-145 -25 -69 -12 -134 -23 -145 -25 -11 -2 -38 -6 -60 -10 -64 -11 -70 -10
-72 13 -1 15 -4 29 -18 97 -2 11 -6 36 -9 55 -9 64 -17 115 -21 138 -6 29 -14
70 -20 107 -2 17 -8 48 -11 70 -15 88 -11 139 12 173 12 19 31 40 43 48 20 14
29 17 89 30 25 5 88 -24 114 -52 16 -18 38 -65 44 -92 1 -7 9 -24 18 -37 13
-20 22 -23 73 -21 78 3 97 -2 131 -33 42 -38 62 -81 57 -128 -5 -48 -37 -105
-67 -121 -38 -20 -111 -38 -150 -37 -21 0 -38 -2 -38 -5 0 -3 -15 -6 -32 -6
-40 -1 -140 -14 -150 -20 -4 -2 -10 1 -13 7 -9 14 -55 -28 -55 -51 0 -8 7 -25
15 -36 15 -22 28 -23 150 -9 48 6 138 15 180 19 11 1 25 5 32 9 6 4 18 4 26 1
8 -3 18 -1 22 5 3 6 14 11 24 11 35 0 162 135 144 153 -3 4 -1 12 4 19 6 7 11
37 12 66 4 91 -58 194 -143 237 -45 23 -42 22 -99 24 -40 1 -43 4 -67 49 -51
98 -139 153 -237 148 -103 -5 -194 -66 -235 -158 -22 -47 -17 -171 11 -323 11
-60 23 -128 26 -150 3 -22 8 -49 9 -60 2 -11 6 -36 10 -55 23 -130 24 -132 30
-159 13 -55 41 -60 173 -30 46 10 55 8 59 -14 2 -7 6 -25 9 -42 13 -64 69
-245 98 -315 6 -14 11 -27 11 -30 7 -33 70 -131 103 -160 77 -68 196 -71 300
-8 25 15 41 17 70 12 54 -10 123 -11 158 -1 17 5 35 10 40 11 36 10 68 29 98
58 48 47 64 80 81 168 2 8 14 16 27 18 13 2 31 6 39 9 8 3 21 7 28 9 46 9 120
100 143 176 9 31 13 116 6 148 -6 27 -37 85 -59 110 -37 42 -89 81 -99 74 -5
-3 -9 0 -9 5 0 6 -8 11 -18 11 -10 0 -22 3 -26 7 -3 4 -12 8 -19 10 -7 2 -54
13 -104 25 -51 12 -93 26 -93 32 0 5 6 17 14 25 23 27 68 114 85 166 14 40 17
87 17 230 l-1 180 -25 0 c-20 0 -27 -7 -35 -32 -5 -18 -12 -33 -16 -33 -4 0
-5 -9 -2 -20 3 -11 0 -20 -6 -20 -6 0 -10 -4 -9 -8 4 -10 -35 -92 -42 -92 -3
0 -13 13 -23 29 -29 49 -104 116 -162 145 -73 35 -163 48 -249 35 -27 -4 -30
-1 -43 46 -8 28 -17 57 -20 65 -3 8 -5 18 -5 23 1 4 -3 7 -8 7 -6 0 -10 6 -10
14 0 8 -28 44 -62 80 -62 64 -136 108 -202 120 -16 3 -30 7 -33 9 -7 8 45 63
102 107 52 40 68 71 45 85 -9 6 -272 -80 -335 -110 -37 -17 -119 -95 -165
-157 -19 -26 -38 -48 -42 -48 -8 0 -39 55 -37 66 0 4 -3 10 -8 13 -5 3 -24 27
-41 53 -50 73 -122 141 -176 166 -49 23 -128 36 -156 26z m112 -117 c44 -22
82 -61 129 -127 60 -85 117 -191 113 -210 -2 -8 -7 -31 -11 -50 -14 -72 -7
-204 18 -330 5 -25 11 -64 14 -87 3 -23 9 -52 14 -65 11 -30 -3 -68 -26 -68
-10 -1 -36 -4 -58 -7 -22 -4 -79 -7 -127 -7 -49 -1 -88 -3 -88 -6 0 -3 -15 -4
-32 -3 -18 1 -66 5 -106 7 -99 7 -140 29 -162 84 -9 24 -14 57 -12 72 4 26 7
28 31 24 37 -8 91 37 91 74 0 44 -10 66 -37 86 -27 20 -93 31 -93 15 0 -5 -7
-6 -15 -3 -32 13 -54 148 -30 194 16 32 70 80 90 80 7 0 18 -7 26 -16 22 -26
71 -41 108 -33 66 15 86 69 45 118 -14 17 -32 31 -40 31 -8 0 -14 3 -14 8 0 4
-14 8 -31 9 -39 3 -39 3 -43 45 -7 67 58 153 130 171 37 9 92 7 116 -6z m1468
-1162 c21 1 147 -22 195 -36 110 -31 166 -69 191 -127 15 -36 16 -132 2 -132
-5 0 -8 -7 -8 -17 0 -27 -72 -88 -107 -91 -26 -2 -35 4 -53 33 -37 60 -98 81
-139 47 -44 -35 -27 -125 29 -154 31 -16 51 -34 44 -40 -2 -3 -7 -16 -9 -29
-12 -64 -95 -119 -177 -119 -31 0 -50 5 -52 13 -14 53 -24 73 -48 90 -45 33
-114 20 -136 -27 -12 -27 -7 -77 10 -87 21 -13 -51 -38 -104 -35 -54 2 -80 26
-117 105 -12 25 -26 54 -31 63 -8 15 -30 79 -59 173 -5 17 -12 46 -16 65 -4
19 -10 40 -14 45 -4 6 -7 19 -6 30 0 11 -3 28 -8 38 -4 9 -4 17 0 17 4 0 46 7
93 15 47 8 101 17 120 19 19 3 36 6 38 7 3 2 7 3 57 13 96 18 230 75 260 110
11 13 22 20 25 17 3 -4 12 -6 20 -6z"/>
</g>
</svg>
